<svg xmlns="http://www.w3.org/2000/svg" version="1.1" xmlns:xlink="http://www.w3.org/1999/xlink" width="1000" height="1000"><style>
    #light-icon {
      display: inline;
    }
    #dark-icon {
      display: none;
    }

    @media (prefers-color-scheme: dark) {
      #light-icon {
        display: none;
      }
      #dark-icon {
        display: inline;
      }
    }
  </style><g id="light-icon"><svg xmlns="http://www.w3.org/2000/svg" version="1.1" xmlns:xlink="http://www.w3.org/1999/xlink" width="1000" height="1000"><g clip-path="url(#SvgjsClipPath1285)"><rect width="1000" height="1000" fill="#ffffff"></rect><g transform="matrix(1,0,0,1,0,0)"><svg xmlns="http://www.w3.org/2000/svg" version="1.1" xmlns:xlink="http://www.w3.org/1999/xlink" width="1000" height="1000"><svg version="1.1" xmlns="http://www.w3.org/2000/svg" width="1000" height="1000">

<path d="M0 0 C31.02 0 62.04 0 94 0 C97.94284688 7.88569377 101.83201589 15.68505063 105.484375 23.69140625 C107.04551831 27.099366 108.64741385 30.48635406 110.25 33.875 C113.31099199 40.37614532 116.16032042 46.96220697 119 53.5625 C122.2715647 61.16329775 125.71007443 68.59046555 129.48828125 75.953125 C131.42432137 79.85522137 133.05801089 83.84841571 134.6953125 87.8828125 C137.74511388 95.16946371 141.23303133 102.27400084 144.6171875 109.41015625 C150.31516442 121.5013178 155.64878155 133.75223703 161 146 C161.99 146 162.98 146 164 146 C165.72332597 143.9091115 167.23939401 141.86212872 168.75 139.625 C169.42131958 138.65771973 169.42131958 138.65771973 170.10620117 137.67089844 C171.41261792 135.78627783 172.70695911 133.8938108 174 132 C175.10168909 130.41494176 176.20553518 128.83137831 177.3125 127.25 C177.86164062 126.46238281 178.41078125 125.67476563 178.9765625 124.86328125 C181.68349154 121.03281988 184.43629363 117.2362318 187.1875 113.4375 C193.02381096 105.37611644 198.78237509 97.2627931 204.50732422 89.12207031 C214.92362533 74.31368149 225.41665529 59.56495947 236.03173828 44.8984375 C240.33971147 38.93647637 244.58888851 32.93472861 248.82055664 26.91845703 C252.16231152 22.17196982 255.54773401 17.46077173 258.98828125 12.78515625 C261.05631628 10.18961998 261.05631628 10.18961998 261.88079834 7.57484436 C263.5059082 4.0502448 264.85197229 2.32565727 268 0 C275.73968841 -1.97488686 284.17938278 -1.15729735 292.08984375 -0.9765625 C294.47877542 -0.95790234 296.86774545 -0.94367194 299.25672913 -0.9336853 C305.5328306 -0.89557351 311.80660336 -0.79740518 318.08178711 -0.68664551 C324.48975115 -0.58419436 330.89809297 -0.53864367 337.30664062 -0.48828125 C349.87208508 -0.38115797 362.43591848 -0.21250551 375 0 C374.21644259 4.87615792 372.1599866 7.90484275 369.1875 11.75 C368.18470754 13.08090961 367.18346362 14.41298709 366.18359375 15.74609375 C365.6613623 16.43944824 365.13913086 17.13280273 364.60107422 17.84716797 C361.91764295 21.45535597 359.33397161 25.13274438 356.75 28.8125 C356.24057861 29.53638916 355.73115723 30.26027832 355.20629883 31.00610352 C352.58899591 34.72844241 349.98037293 38.45680168 347.375 42.1875 C341.96746224 49.92183887 336.47802159 57.59938647 330.92578125 65.23046875 C324.6383254 73.87966634 318.47235407 82.59266846 312.48901367 91.45581055 C309.57146725 95.7647227 306.56135286 99.97280211 303.41772461 104.11962891 C301.30851827 106.91713316 299.27791709 109.768304 297.25 112.625 C296.38415946 113.84117778 295.51827266 115.05732264 294.65234375 116.2734375 C293.99661377 117.19527832 293.99661377 117.19527832 293.32763672 118.13574219 C292.01397527 119.98037603 290.69708569 121.82265508 289.37890625 123.6640625 C285.16223082 129.55495917 280.96899492 135.46053176 276.82421875 141.40234375 C274.67113166 144.46830288 272.49323822 147.51619348 270.3125 150.5625 C264.50247944 158.6807177 258.75103694 166.83994188 253 175 C246.1020518 184.78739292 239.18784056 194.5621502 232.21777344 204.29833984 C230.14309367 207.19740119 228.07174 210.0988375 226 213 C225.17319249 214.15756309 224.34636955 215.31511516 223.51953125 216.47265625 C223.10783691 217.04902832 222.69614258 217.62540039 222.27197266 218.21923828 C211 234 211 234 209.56103516 235.75439453 C206.6105742 239.43328028 206.6105742 239.43328028 205.99609375 244.01953125 C207.13174369 247.39113011 208.49215504 250.49315364 210.0625 253.6875 C212.90705828 259.57184589 215.5093462 265.52025746 218 271.5625 C220.80856974 278.33836819 223.86299387 284.87071179 227.2109375 291.3984375 C230.45257008 297.81288588 233.2441079 304.44648748 236.13037109 311.02587891 C237.21343952 313.48452329 238.32114883 315.93130346 239.4375 318.375 C244.58177986 329.65084575 249.68956445 340.94352268 254.625 352.3125 C257.1125587 358.04045001 259.70961675 363.70754289 262.37548828 369.35449219 C264.50618146 373.88712257 266.51883099 378.46282417 268.5 383.0625 C270.73858326 388.25460343 273.11764734 393.3386954 275.6875 398.375 C278.01705544 402.95663122 280.0724718 407.5171689 281.91015625 412.3125 C284.10399189 417.72238859 286.68487435 422.96884947 289.17578125 428.24707031 C292.16025641 434.5943842 295.00455607 441.00507609 297.84277344 447.41870117 C300.74281998 453.96849882 303.6628772 460.50661988 306.6875 467 C306.97230225 467.61246582 307.25710449 468.22493164 307.55053711 468.85595703 C309.61559173 473.26212704 311.82184856 477.58023692 314.15234375 481.8515625 C315 484 315 484 315 489 C283.32 489 251.64 489 219 489 C214.50881581 478.89483558 210.02424224 468.79885217 205.640625 458.6484375 C204.53727814 456.14241732 203.35425596 453.69643201 202.109375 451.2578125 C199.01252922 445.13672641 196.40902908 438.79200429 193.7109375 432.48828125 C191.89680452 428.27570865 190.08681731 424.08563631 188 420 C184.92246243 413.97470053 182.37185082 407.70514236 179.7109375 401.48828125 C177.60752154 396.60396872 175.43270466 391.8045915 173.01416016 387.06933594 C170.89776673 382.75095589 169.07420617 378.29717318 167.1875 373.875 C163.8396356 366.0874151 160.32720717 358.47357143 156.453125 350.93359375 C154.7475605 347.49037079 153.34684194 343.98499498 151.9765625 340.3984375 C150.24326843 336.14146727 148.11647147 332.0768098 146 328 C145.34 328 144.68 328 144 328 C142.80457522 329.68125012 141.69287157 331.42248083 140.625 333.1875 C138.2898982 337.02961683 135.82801706 340.5086844 133 344 C130.97052762 346.72874271 128.98577757 349.48935714 127 352.25 C126.4325708 353.03705322 125.8651416 353.82410645 125.28051758 354.63500977 C120.87607523 360.75531001 116.52003337 366.90888552 112.18310547 373.07714844 C109.36676653 377.07896739 106.51802196 381.05297383 103.625 385 C100.82217005 388.82938084 98.16594655 392.72738208 95.55859375 396.69140625 C93.13093261 400.28726523 90.55160215 403.76970516 87.98828125 407.26953125 C85.62422928 410.51603876 83.32296275 413.80258408 81.02734375 417.09765625 C78.46814203 420.76140746 75.89083085 424.4121956 73.3125 428.0625 C72.79848633 428.79033691 72.28447266 429.51817383 71.75488281 430.26806641 C70.69683291 431.76615253 69.63872688 433.26419901 68.58056641 434.76220703 C66.54886398 437.63872609 64.51793327 440.51578921 62.48730469 443.39306641 C61.49742817 444.79533732 60.50719493 446.19735649 59.51660156 447.59912109 C56.92109993 451.27281963 54.3325059 454.95113283 51.75390625 458.63671875 C50.95243164 459.77947266 50.95243164 459.77947266 50.13476562 460.9453125 C49.11959873 462.39302876 48.1064312 463.84215003 47.09570312 465.29296875 C44.92557828 468.38366115 42.72527342 471.38496112 40.28125 474.265625 C38.53064242 476.36395601 37.17999124 478.16420295 35.9375 480.5625 C34.10320681 483.81689115 32.641851 486.36597989 30 489 C27.3303596 489.55750771 25.26619718 489.7824542 22.58691406 489.80200195 C21.84358952 489.82599469 21.10026497 489.84998743 20.33441544 489.87470722 C17.88934639 489.94428225 15.44590767 489.97518108 13 490 C12.17948654 490.01371517 11.35897308 490.02743034 10.51359558 490.04156113 C4.21204623 490.14683412 -2.08831235 490.16555481 -8.390625 490.16796875 C-10.39459251 490.17119105 -12.3985598 490.17455581 -14.40252686 490.17805481 C-18.56409248 490.18398824 -22.72563749 490.1859002 -26.88720703 490.18530273 C-32.21664859 490.18520021 -37.54595961 490.19897017 -42.87537003 490.21607494 C-46.99658824 490.2271787 -51.11777439 490.22922262 -55.23900604 490.22869301 C-57.20538543 490.22987103 -59.17176569 490.23428279 -61.13813019 490.24202538 C-63.87505982 490.25181346 -66.61169859 490.24895437 -69.34863281 490.24291992 C-70.15486588 490.24853943 -70.96109894 490.25415894 -71.79176331 490.25994873 C-75.93938963 490.23669028 -79.35025543 490.07001676 -83 488 C-84.49438383 485.60779275 -85.6631392 483.42350441 -86.8125 480.875 C-87.50731847 479.40992185 -88.20264473 477.94508444 -88.8984375 476.48046875 C-89.24745117 475.73200684 -89.59646484 474.98354492 -89.95605469 474.21240234 C-91.24070946 471.48987157 -92.59333092 468.80577899 -93.95581055 466.12158203 C-97.65498788 458.8336231 -101.16591933 451.46247363 -104.64428711 444.06713867 C-107.02943509 439.00951868 -109.47924205 433.9913016 -112 429 C-114.92502144 423.20822449 -117.73840229 417.3714148 -120.5 411.5 C-124.53339931 402.93064276 -128.72885128 394.4528716 -133 386 C-137.67485675 376.74816485 -142.22723004 367.45271224 -146.64208984 358.07373047 C-150.30192407 350.31803016 -154.13261977 342.65378838 -158 335 C-162.27115612 326.54711376 -166.46613898 318.06914978 -170.5 309.5 C-173.37892715 303.38677619 -176.29738508 297.29736118 -179.3125 291.25 C-179.62574219 290.61900391 -179.93898438 289.98800781 -180.26171875 289.33789062 C-182.36921161 285.13641447 -184.64045625 281.06279057 -187 277 C-188.65 277 -190.3 277 -192 277 C-193.92279691 285.5722016 -194.99601089 294.22868138 -196.0625 302.9375 C-196.32206892 305.05092604 -196.58277037 307.16417847 -196.84727478 309.2769928 C-197.08485764 311.17509289 -197.31806629 313.07373899 -197.55102539 314.97241211 C-198 318 -198 318 -199 321 C-199.30057802 323.49985679 -199.5664526 325.99473983 -199.8125 328.5 C-200.62108116 336.24426947 -201.69972197 343.92847906 -202.875 351.625 C-204.42103113 361.77349209 -205.76648679 371.93497599 -207 382.125 C-208.31067544 392.94728652 -209.84987932 403.70790489 -211.63842773 414.4621582 C-212.73465256 421.12081007 -213.59729029 427.76503658 -214.28393555 434.47705078 C-214.93755694 440.75951425 -215.85655988 446.98667952 -216.82006836 453.22827148 C-217.96958209 460.6961219 -218.99779948 468.17777335 -219.99780273 475.66699219 C-220.11454346 476.53743164 -220.23128418 477.40787109 -220.3515625 478.3046875 C-220.45291504 479.06765137 -220.55426758 479.83061523 -220.65869141 480.61669922 C-221.06004825 483.41930686 -221.53123734 486.20795575 -222 489 C-234.09994118 489.30173144 -246.19898246 489.53245207 -258.30192471 489.67355824 C-263.92260901 489.74129913 -269.54071308 489.83310035 -275.15991211 489.98071289 C-280.58719595 490.1223852 -286.01200556 490.19977517 -291.44099617 490.23340416 C-293.50773137 490.25735373 -295.57433675 490.30412955 -297.64001274 490.37449074 C-313.41757845 490.89033792 -313.41757845 490.89033792 -317.74086761 487.7256813 C-321.02735008 484.27012366 -322.9996582 480.31481248 -325 476 C-325.86279693 474.66216778 -326.75065271 473.33958841 -327.6796875 472.046875 C-328.40414063 470.95890625 -329.12859375 469.8709375 -329.875 468.75 C-330.28371338 468.13632568 -330.69242676 467.52265137 -331.11352539 466.89038086 C-334.67514862 461.52601899 -338.17275945 456.12045097 -341.63037109 450.68847656 C-344.64859105 445.98238154 -347.79592396 441.37310286 -350.97265625 436.7734375 C-357.13956578 427.83961628 -363.17185813 418.81797381 -369.18847656 409.7824707 C-370.99632365 407.06801998 -372.80663481 404.35522473 -374.6171875 401.64257812 C-381.0353036 392.01706925 -387.38676178 382.35301596 -393.65478516 372.62915039 C-396.45593711 368.28631002 -399.30853327 363.97909214 -402.1875 359.6875 C-403.19921943 358.17447962 -404.21093818 356.66145879 -405.22265625 355.1484375 C-405.69848145 354.4378418 -406.17430664 353.72724609 -406.66455078 352.99511719 C-408.48854141 350.2701352 -410.30692969 347.54143451 -412.125 344.8125 C-412.74890625 343.87664062 -413.3728125 342.94078125 -414.015625 341.9765625 C-416.1875 338.71875 -416.1875 338.71875 -418.359375 335.4609375 C-418.97631226 334.53559204 -418.97631226 334.53559204 -419.60571289 333.59155273 C-420.45140353 332.32293545 -421.29694408 331.0542181 -422.14233398 329.78540039 C-424.2957882 326.55377656 -426.45189427 323.32398081 -428.61328125 320.09765625 C-429.04463379 319.4528833 -429.47598633 318.80811035 -429.92041016 318.14379883 C-430.72507441 316.9411436 -431.53063435 315.7390868 -432.33740234 314.5378418 C-434.71004882 310.98900727 -437.01447669 307.40305967 -439.29296875 303.79296875 C-443.10256982 297.78893485 -447.10221993 291.92499144 -451.125 286.0625 C-457.56959238 276.63080785 -463.87412048 267.12003856 -470.0703125 257.5234375 C-473.94328525 251.52731379 -477.90970966 245.59457986 -481.88427734 239.66552734 C-483.63578325 237.05091611 -485.38010988 234.43152924 -487.125 231.8125 C-487.76953125 230.84570312 -488.4140625 229.87890625 -489.078125 228.8828125 C-499.88541667 212.671875 -510.69270833 196.4609375 -521.5 180.25 C-521.91258057 179.63116943 -522.32516113 179.01233887 -522.75024414 178.37475586 C-523.58291394 177.12566982 -524.41543367 175.87648373 -525.24780273 174.62719727 C-527.34006418 171.48737288 -529.43496622 168.3493713 -531.53515625 165.21484375 C-535.76658537 158.89539907 -539.9750951 152.56083411 -544.125 146.1875 C-544.5156665 145.59445068 -544.90633301 145.00140137 -545.30883789 144.39038086 C-548 140.23097845 -548 140.23097845 -548 138 C-548.66 138 -549.32 138 -550 138 C-551.55078125 135.83984375 -551.55078125 135.83984375 -553.3125 132.9375 C-555.3521827 129.63253695 -557.38344773 126.37692808 -559.6875 123.25 C-561.30293713 120.97965593 -562.70822746 118.84684534 -564.0625 116.4375 C-565.39583898 114.07189858 -566.7155121 111.90577724 -568.25 109.6875 C-570 107 -570 107 -570 105 C-570.66 105 -571.32 105 -572 105 C-573.58876375 102.67490536 -575.0574512 100.3516909 -576.5 97.9375 C-580.43081821 91.47240543 -584.51052573 85.15274194 -588.86328125 78.96264648 C-591.11944237 75.67042761 -592.57097826 72.99667624 -593 69 C-583.22542114 64.88693464 -573.31044654 61.32119239 -563.27514648 57.90087891 C-556.09622787 55.44427668 -548.95265795 52.90757806 -541.82421875 50.30859375 C-540.94673981 49.98960114 -540.06926086 49.67060852 -539.16519165 49.34194946 C-533.86025099 47.41354386 -533.86025099 47.41354386 -528.56103516 45.46948242 C-526.07834655 44.55467128 -523.59229149 43.64959462 -521.10546875 42.74609375 C-520.36068771 42.4684166 -519.61590668 42.19073944 -518.84855652 41.90464783 C-515.15516391 40.57245378 -511.94178583 39.46032904 -508 40 C-506.11328125 41.87890625 -506.11328125 41.87890625 -504.3125 44.5625 C-503.28189453 46.07263672 -503.28189453 46.07263672 -502.23046875 47.61328125 C-501.48640335 48.74180806 -500.74293376 49.87072789 -500 51 C-499.20564684 52.18181036 -498.41004421 53.36278171 -497.61328125 54.54296875 C-495.48629312 57.70461685 -493.38156999 60.88049519 -491.28222656 64.06054688 C-489.19776067 67.21344045 -487.09827635 70.35628831 -485 73.5 C-484.16919565 74.74604362 -483.33846661 75.99213747 -482.5078125 77.23828125 C-482.09563477 77.85654785 -481.68345703 78.47481445 -481.25878906 79.11181641 C-471.38085938 93.92871094 -461.50292969 108.74560547 -451.625 123.5625 C-451.21628662 124.17552979 -450.80757324 124.78855957 -450.38647461 125.42016602 C-449.54078421 126.68878346 -448.69524549 127.95750203 -447.84985352 129.22631836 C-445.74585863 132.38371148 -443.63952615 135.5394834 -441.52734375 138.69140625 C-436.5661008 146.10180818 -431.67485714 153.55334481 -426.84863281 161.05249023 C-423.94398123 165.56204047 -420.9865461 170.02781675 -417.92578125 174.43359375 C-417 176 -417 176 -417 178 C-416.34 178 -415.68 178 -415 178 C-413.39251375 180.36716784 -411.90193847 182.73354608 -410.4375 185.1875 C-407.23560939 190.43857736 -403.97191835 195.59094287 -400.4375 200.625 C-396.92723633 205.62465371 -393.58204793 210.70050306 -390.29785156 215.84912109 C-386.61368744 221.62140425 -382.81233724 227.31164443 -379 233 C-377.04020072 235.93652315 -375.08269225 238.87457188 -373.125 241.8125 C-372.08857916 243.3672125 -371.05212096 244.92190008 -370.015625 246.4765625 C-349.67708333 276.984375 -329.33854167 307.4921875 -309 338 C-303.26658036 304.19863372 -298.07196567 270.32812343 -293.05252075 236.41409302 C-291.1113138 223.30481394 -289.09941244 210.20980822 -287 197.125 C-284.31674863 180.39289369 -281.91538455 163.62460668 -279.53955078 146.84643555 C-276.75081755 127.16014512 -273.81160676 107.50098242 -270.72265625 87.859375 C-270.61630859 87.18311066 -270.50996094 86.50684631 -270.40039062 85.81008911 C-270.24111084 84.79735428 -270.24111084 84.79735428 -270.07861328 83.76416016 C-269.91960541 82.75304169 -269.91960541 82.75304169 -269.75738525 81.72149658 C-269.54486853 80.3702049 -269.33226336 79.01892713 -269.11956787 77.66766357 C-267.67451608 68.47576939 -266.30040692 59.2760214 -265 50.0625 C-263.58669718 40.05876127 -262.14428595 30.05991732 -260.64916992 20.06808472 C-260.42566756 18.57068779 -260.20364943 17.07306853 -259.9831543 15.57522583 C-259.67637618 13.493538 -259.36430481 11.41271233 -259.05078125 9.33203125 C-258.78261597 7.53342651 -258.78261597 7.53342651 -258.5090332 5.69848633 C-258 3 -258 3 -257 2 C-255.30222767 1.88722242 -253.59978535 1.8442485 -251.89834595 1.82832336 C-250.79166565 1.81564423 -249.68498535 1.80296509 -248.54476929 1.78990173 C-247.31908234 1.78100418 -246.09339539 1.77210663 -244.83056641 1.76293945 C-243.54730469 1.74982727 -242.26404297 1.73671509 -240.94189453 1.72320557 C-237.40309644 1.68746029 -233.86427285 1.6582748 -230.32540178 1.63081384 C-228.10349413 1.61329648 -225.88160229 1.59441873 -223.65970993 1.57506371 C-215.87392362 1.50732234 -208.08811413 1.44500982 -200.30224609 1.38745117 C-193.10846131 1.33412504 -185.91485166 1.2690183 -178.72122061 1.19811279 C-172.51026947 1.13745829 -166.29928169 1.08564456 -160.08820093 1.04018563 C-156.39565931 1.01301016 -152.70322438 0.9826231 -149.01079178 0.94317055 C-126.52799662 0.70806906 -104.18809449 1.02115379 -82 5 C-80.73929688 5.21140625 -79.47859375 5.4228125 -78.1796875 5.640625 C-45.86289985 11.59974896 -13.32926672 28.80324249 6 56 C7.09054687 57.51787109 7.09054687 57.51787109 8.203125 59.06640625 C16.69655764 71.33208199 22.77183001 85.43648944 26 100 C26.1762793 100.71736328 26.35255859 101.43472656 26.53417969 102.17382812 C28.4451016 110.96042905 28.3721876 119.78191247 28.37060547 128.73046875 C28.37494731 131.46679456 28.41127297 134.20146142 28.44921875 136.9375 C28.5258771 149.08606831 27.04052868 160.24575995 24 172 C23.68877197 173.2068042 23.37754395 174.4136084 23.05688477 175.65698242 C19.48913196 188.78048344 13.27164337 201.24157258 5 212 C4.32324219 212.95132813 3.64648438 213.90265625 2.94921875 214.8828125 C-19.2164756 245.67068635 -54.71075752 262.27888458 -91 270 C-86.10183576 281.22495973 -80.89295218 292.31646953 -75.375 303.25 C-71.51768244 310.89556063 -67.78356295 318.59996375 -64.0625 326.3125 C-63.75759644 326.94437225 -63.45269287 327.57624451 -63.1385498 328.2272644 C-59.07041413 336.66245717 -55.04280908 345.11597744 -51.05322266 353.58862305 C-48.43502217 359.13005113 -45.71252656 364.61347731 -42.94775391 370.08300781 C-40.53851343 374.86797722 -38.25431043 379.70291525 -36 384.5625 C-33.33575757 390.29121562 -30.53747072 395.92596467 -27.5625 401.5 C-27.22025391 402.14138916 -26.87800781 402.78277832 -26.52539062 403.44360352 C-25.02774747 406.40788159 -25.02774747 406.40788159 -23 409 C-20.26584181 405.77759928 -18.0893425 402.56196973 -16.125 398.84375 C-14.62369387 396.38327606 -12.80710672 394.24717934 -11 392 C-8.90833222 389.18769817 -6.86020393 386.34441538 -4.8125 383.5 C-4.23443604 382.69828369 -3.65637207 381.89656738 -3.06079102 381.07055664 C0.92111525 375.53419565 4.83120588 369.95516947 8.6953125 364.3359375 C18.80638689 349.65569269 29.24002857 335.19183053 39.6875 320.75 C43.59514675 315.34808799 47.47597781 309.93177335 51.28125 304.45703125 C53.39517586 301.43507815 55.54049198 298.43597245 57.6875 295.4375 C63.49762118 287.3193552 69.24896377 279.16005711 75 271 C94.50029042 243.33133698 94.50029042 243.33133698 98.390625 238.14672852 C101.20645547 234.54578125 101.20645547 234.54578125 102.125 230.1875 C101.1523956 227.43178753 100.04486968 225.04555099 98.7109375 222.45703125 C95.64140131 216.37598936 93.02045361 210.13726889 90.39453125 203.85546875 C88.17447091 198.59743111 85.78130043 193.48173535 83.19628906 188.39355469 C81.38646703 184.77243322 79.75071195 181.08157296 78.125 177.375 C77.78476807 176.60575195 77.44453613 175.83650391 77.09399414 175.04394531 C75.43799134 171.29418566 73.79746776 167.5381619 72.17578125 163.7734375 C69.38174752 157.29943792 66.51483352 150.90884043 63.3125 144.625 C60.9724639 140.02275605 58.91420096 135.4394225 57.0625 130.625 C55.56348482 126.92155072 53.83838605 123.3330266 52.12890625 119.72290039 C48.97869234 113.02951281 45.99245778 106.26507387 43 99.5 C39.78830643 92.24239389 36.5776308 84.98880492 33.1875 77.8125 C30.55911934 72.24389691 28.07158628 66.62704072 25.6237793 60.9777832 C23.38178892 55.8228967 21.02485731 50.72968523 18.625 45.64672852 C16.49429029 41.11361982 14.48141526 36.53755012 12.5 31.9375 C9.72157059 25.49584606 6.68478671 19.22826885 3.48046875 12.98828125 C1.08526653 8.15363824 0 5.52428366 0 0 Z M-166 86 C-166.144375 87.299375 -166.28875 88.59875 -166.4375 89.9375 C-166.875 93.875 -166.875 93.875 -168 95 C-168.21510988 96.61929939 -168.37083434 98.24659004 -168.5 99.875 C-168.5825 100.85984375 -168.665 101.8446875 -168.75 102.859375 C-168.87375 104.41398437 -168.87375 104.41398437 -169 106 C-169.16254717 108.04199877 -169.32900035 110.08369168 -169.5 112.125 C-169.5721875 113.03507812 -169.644375 113.94515625 -169.71875 114.8828125 C-170 117 -170 117 -171 118 C-172.15769615 124.94617691 -172.12010487 131.98053779 -172 139 C-172.66 139 -173.32 139 -174 139 C-174.05534912 139.69150146 -174.11069824 140.38300293 -174.16772461 141.09545898 C-174.41963531 144.20987214 -174.67847351 147.32367095 -174.9375 150.4375 C-175.02451172 151.52611328 -175.11152344 152.61472656 -175.20117188 153.73632812 C-175.28818359 154.77080078 -175.37519531 155.80527344 -175.46484375 156.87109375 C-175.543396 157.82943115 -175.62194824 158.78776855 -175.70288086 159.77514648 C-176 162 -176 162 -177 163 C-177.21475256 164.53439961 -177.37067611 166.07714551 -177.5 167.62109375 C-177.5825 168.55630859 -177.665 169.49152344 -177.75 170.45507812 C-177.8325 171.43927734 -177.915 172.42347656 -178 173.4375 C-178.16296754 175.37401278 -178.32946305 177.31023288 -178.5 179.24609375 C-178.5721875 180.10904053 -178.644375 180.9719873 -178.71875 181.86108398 C-179 184 -179 184 -180 186 C-180.0689472 187.37342831 -180.08467708 188.75002102 -180.0625 190.125 C-180.041875 191.40375 -180.02125 192.6825 -180 194 C-175.54168018 194.02891546 -171.08338431 194.04676981 -166.625 194.0625 C-165.35398437 194.07087891 -164.08296875 194.07925781 -162.7734375 194.08789062 C-161.56171875 194.09111328 -160.35 194.09433594 -159.1015625 194.09765625 C-157.98088379 194.10289307 -156.86020508 194.10812988 -155.70556641 194.11352539 C-153.03132657 194.18621466 -153.03132657 194.18621466 -151 193 C-148.83597668 192.78817615 -146.66652344 192.63077164 -144.49609375 192.5 C-143.19865234 192.4175 -141.90121094 192.335 -140.56445312 192.25 C-138.49494127 192.12384331 -136.42533884 191.99926979 -134.35571289 191.875 C-132.36060813 191.75375446 -130.36584266 191.62696562 -128.37109375 191.5 C-126.5756311 191.39171875 -126.5756311 191.39171875 -124.74389648 191.28125 C-122.09059183 191.30103197 -122.09059183 191.30103197 -121 190 C-118.65276034 189.602507 -116.29671452 189.25631277 -113.9375 188.9375 C-112.64714844 188.76089844 -111.35679687 188.58429688 -110.02734375 188.40234375 C-109.02832031 188.26957031 -108.02929688 188.13679688 -107 188 C-107 187.34 -107 186.68 -107 186 C-105.906875 186.020625 -104.81375 186.04125 -103.6875 186.0625 C-100.05615809 186.18544452 -100.05615809 186.18544452 -97 185 C-97 184.34 -97 183.68 -97 183 C-95.989375 182.938125 -94.97875 182.87625 -93.9375 182.8125 C-88.24539409 182.01583609 -83.74090352 178.21415035 -80 174 C-80 173.34 -80 172.68 -80 172 C-79.01 171.67 -78.02 171.34 -77 171 C-77 170.34 -77 169.68 -77 169 C-76.01 168.67 -75.02 168.34 -74 168 C-74 167.34 -74 166.68 -74 166 C-73.34 166 -72.68 166 -72 166 C-71.67 164.02 -71.34 162.04 -71 160 C-70.34 160 -69.68 160 -69 160 C-68.67 157.36 -68.34 154.72 -68 152 C-67.34 152 -66.68 152 -66 152 C-65.2132732 146.4554492 -64.84441818 141.09647338 -64.875 135.5 C-64.87113281 134.79230469 -64.86726562 134.08460938 -64.86328125 133.35546875 C-64.87217393 128.49117041 -65.31662146 123.81619164 -66 119 C-66.66 119 -67.32 119 -68 119 C-68.495 116.03 -68.495 116.03 -69 113 C-69.66 113 -70.32 113 -71 113 C-71.33 111.35 -71.66 109.7 -72 108 C-72.66 108 -73.32 108 -74 108 C-74.495 106.02 -74.495 106.02 -75 104 C-75.66 104 -76.32 104 -77 104 C-77 103.34 -77 102.68 -77 102 C-77.66 102 -78.32 102 -79 102 C-79 101.34 -79 100.68 -79 100 C-79.99 99.67 -80.98 99.34 -82 99 C-82.495 98.01 -82.495 98.01 -83 97 C-86.02934491 96.34227572 -86.02934491 96.34227572 -89 96 C-89 95.34 -89 94.68 -89 94 C-91.64 93.67 -94.28 93.34 -97 93 C-97 92.34 -97 91.68 -97 91 C-107.41848134 87.60266913 -118.36126363 87.75686644 -129.22460938 87.39453125 C-130.21396484 87.35714844 -131.20332031 87.31976563 -132.22265625 87.28125 C-133.11734619 87.25095703 -134.01203613 87.22066406 -134.93383789 87.18945312 C-137 87 -137 87 -138 86 C-140.07262076 85.91232888 -142.14820294 85.89304127 -144.22265625 85.90234375 C-146.11274414 85.90717773 -146.11274414 85.90717773 -148.04101562 85.91210938 C-149.38151109 85.92046597 -150.72200588 85.92893093 -152.0625 85.9375 C-153.40689942 85.9425134 -154.7513006 85.94707658 -156.09570312 85.95117188 C-159.39717941 85.96300512 -162.69856803 85.97949029 -166 86 Z " fill="#000" transform="translate(618,283)"></path>
</svg></svg></g></g><defs><clipPath id="SvgjsClipPath1285"><rect width="1000" height="1000" x="0" y="0" rx="500" ry="500"></rect></clipPath></defs></svg></g><g id="dark-icon"><svg xmlns="http://www.w3.org/2000/svg" version="1.1" xmlns:xlink="http://www.w3.org/1999/xlink" width="1000" height="1000"><g><g transform="matrix(1,0,0,1,0,0)"><svg xmlns="http://www.w3.org/2000/svg" version="1.1" xmlns:xlink="http://www.w3.org/1999/xlink" width="1000" height="1000"><svg version="1.1" xmlns="http://www.w3.org/2000/svg" width="1000" height="1000">

<path d="M0 0 C31.02 0 62.04 0 94 0 C97.94284688 7.88569377 101.83201589 15.68505063 105.484375 23.69140625 C107.04551831 27.099366 108.64741385 30.48635406 110.25 33.875 C113.31099199 40.37614532 116.16032042 46.96220697 119 53.5625 C122.2715647 61.16329775 125.71007443 68.59046555 129.48828125 75.953125 C131.42432137 79.85522137 133.05801089 83.84841571 134.6953125 87.8828125 C137.74511388 95.16946371 141.23303133 102.27400084 144.6171875 109.41015625 C150.31516442 121.5013178 155.64878155 133.75223703 161 146 C161.99 146 162.98 146 164 146 C165.72332597 143.9091115 167.23939401 141.86212872 168.75 139.625 C169.42131958 138.65771973 169.42131958 138.65771973 170.10620117 137.67089844 C171.41261792 135.78627783 172.70695911 133.8938108 174 132 C175.10168909 130.41494176 176.20553518 128.83137831 177.3125 127.25 C177.86164062 126.46238281 178.41078125 125.67476563 178.9765625 124.86328125 C181.68349154 121.03281988 184.43629363 117.2362318 187.1875 113.4375 C193.02381096 105.37611644 198.78237509 97.2627931 204.50732422 89.12207031 C214.92362533 74.31368149 225.41665529 59.56495947 236.03173828 44.8984375 C240.33971147 38.93647637 244.58888851 32.93472861 248.82055664 26.91845703 C252.16231152 22.17196982 255.54773401 17.46077173 258.98828125 12.78515625 C261.05631628 10.18961998 261.05631628 10.18961998 261.88079834 7.57484436 C263.5059082 4.0502448 264.85197229 2.32565727 268 0 C275.73968841 -1.97488686 284.17938278 -1.15729735 292.08984375 -0.9765625 C294.47877542 -0.95790234 296.86774545 -0.94367194 299.25672913 -0.9336853 C305.5328306 -0.89557351 311.80660336 -0.79740518 318.08178711 -0.68664551 C324.48975115 -0.58419436 330.89809297 -0.53864367 337.30664062 -0.48828125 C349.87208508 -0.38115797 362.43591848 -0.21250551 375 0 C374.21644259 4.87615792 372.1599866 7.90484275 369.1875 11.75 C368.18470754 13.08090961 367.18346362 14.41298709 366.18359375 15.74609375 C365.6613623 16.43944824 365.13913086 17.13280273 364.60107422 17.84716797 C361.91764295 21.45535597 359.33397161 25.13274438 356.75 28.8125 C356.24057861 29.53638916 355.73115723 30.26027832 355.20629883 31.00610352 C352.58899591 34.72844241 349.98037293 38.45680168 347.375 42.1875 C341.96746224 49.92183887 336.47802159 57.59938647 330.92578125 65.23046875 C324.6383254 73.87966634 318.47235407 82.59266846 312.48901367 91.45581055 C309.57146725 95.7647227 306.56135286 99.97280211 303.41772461 104.11962891 C301.30851827 106.91713316 299.27791709 109.768304 297.25 112.625 C296.38415946 113.84117778 295.51827266 115.05732264 294.65234375 116.2734375 C293.99661377 117.19527832 293.99661377 117.19527832 293.32763672 118.13574219 C292.01397527 119.98037603 290.69708569 121.82265508 289.37890625 123.6640625 C285.16223082 129.55495917 280.96899492 135.46053176 276.82421875 141.40234375 C274.67113166 144.46830288 272.49323822 147.51619348 270.3125 150.5625 C264.50247944 158.6807177 258.75103694 166.83994188 253 175 C246.1020518 184.78739292 239.18784056 194.5621502 232.21777344 204.29833984 C230.14309367 207.19740119 228.07174 210.0988375 226 213 C225.17319249 214.15756309 224.34636955 215.31511516 223.51953125 216.47265625 C223.10783691 217.04902832 222.69614258 217.62540039 222.27197266 218.21923828 C211 234 211 234 209.56103516 235.75439453 C206.6105742 239.43328028 206.6105742 239.43328028 205.99609375 244.01953125 C207.13174369 247.39113011 208.49215504 250.49315364 210.0625 253.6875 C212.90705828 259.57184589 215.5093462 265.52025746 218 271.5625 C220.80856974 278.33836819 223.86299387 284.87071179 227.2109375 291.3984375 C230.45257008 297.81288588 233.2441079 304.44648748 236.13037109 311.02587891 C237.21343952 313.48452329 238.32114883 315.93130346 239.4375 318.375 C244.58177986 329.65084575 249.68956445 340.94352268 254.625 352.3125 C257.1125587 358.04045001 259.70961675 363.70754289 262.37548828 369.35449219 C264.50618146 373.88712257 266.51883099 378.46282417 268.5 383.0625 C270.73858326 388.25460343 273.11764734 393.3386954 275.6875 398.375 C278.01705544 402.95663122 280.0724718 407.5171689 281.91015625 412.3125 C284.10399189 417.72238859 286.68487435 422.96884947 289.17578125 428.24707031 C292.16025641 434.5943842 295.00455607 441.00507609 297.84277344 447.41870117 C300.74281998 453.96849882 303.6628772 460.50661988 306.6875 467 C306.97230225 467.61246582 307.25710449 468.22493164 307.55053711 468.85595703 C309.61559173 473.26212704 311.82184856 477.58023692 314.15234375 481.8515625 C315 484 315 484 315 489 C283.32 489 251.64 489 219 489 C214.50881581 478.89483558 210.02424224 468.79885217 205.640625 458.6484375 C204.53727814 456.14241732 203.35425596 453.69643201 202.109375 451.2578125 C199.01252922 445.13672641 196.40902908 438.79200429 193.7109375 432.48828125 C191.89680452 428.27570865 190.08681731 424.08563631 188 420 C184.92246243 413.97470053 182.37185082 407.70514236 179.7109375 401.48828125 C177.60752154 396.60396872 175.43270466 391.8045915 173.01416016 387.06933594 C170.89776673 382.75095589 169.07420617 378.29717318 167.1875 373.875 C163.8396356 366.0874151 160.32720717 358.47357143 156.453125 350.93359375 C154.7475605 347.49037079 153.34684194 343.98499498 151.9765625 340.3984375 C150.24326843 336.14146727 148.11647147 332.0768098 146 328 C145.34 328 144.68 328 144 328 C142.80457522 329.68125012 141.69287157 331.42248083 140.625 333.1875 C138.2898982 337.02961683 135.82801706 340.5086844 133 344 C130.97052762 346.72874271 128.98577757 349.48935714 127 352.25 C126.4325708 353.03705322 125.8651416 353.82410645 125.28051758 354.63500977 C120.87607523 360.75531001 116.52003337 366.90888552 112.18310547 373.07714844 C109.36676653 377.07896739 106.51802196 381.05297383 103.625 385 C100.82217005 388.82938084 98.16594655 392.72738208 95.55859375 396.69140625 C93.13093261 400.28726523 90.55160215 403.76970516 87.98828125 407.26953125 C85.62422928 410.51603876 83.32296275 413.80258408 81.02734375 417.09765625 C78.46814203 420.76140746 75.89083085 424.4121956 73.3125 428.0625 C72.79848633 428.79033691 72.28447266 429.51817383 71.75488281 430.26806641 C70.69683291 431.76615253 69.63872688 433.26419901 68.58056641 434.76220703 C66.54886398 437.63872609 64.51793327 440.51578921 62.48730469 443.39306641 C61.49742817 444.79533732 60.50719493 446.19735649 59.51660156 447.59912109 C56.92109993 451.27281963 54.3325059 454.95113283 51.75390625 458.63671875 C50.95243164 459.77947266 50.95243164 459.77947266 50.13476562 460.9453125 C49.11959873 462.39302876 48.1064312 463.84215003 47.09570312 465.29296875 C44.92557828 468.38366115 42.72527342 471.38496112 40.28125 474.265625 C38.53064242 476.36395601 37.17999124 478.16420295 35.9375 480.5625 C34.10320681 483.81689115 32.641851 486.36597989 30 489 C27.3303596 489.55750771 25.26619718 489.7824542 22.58691406 489.80200195 C21.84358952 489.82599469 21.10026497 489.84998743 20.33441544 489.87470722 C17.88934639 489.94428225 15.44590767 489.97518108 13 490 C12.17948654 490.01371517 11.35897308 490.02743034 10.51359558 490.04156113 C4.21204623 490.14683412 -2.08831235 490.16555481 -8.390625 490.16796875 C-10.39459251 490.17119105 -12.3985598 490.17455581 -14.40252686 490.17805481 C-18.56409248 490.18398824 -22.72563749 490.1859002 -26.88720703 490.18530273 C-32.21664859 490.18520021 -37.54595961 490.19897017 -42.87537003 490.21607494 C-46.99658824 490.2271787 -51.11777439 490.22922262 -55.23900604 490.22869301 C-57.20538543 490.22987103 -59.17176569 490.23428279 -61.13813019 490.24202538 C-63.87505982 490.25181346 -66.61169859 490.24895437 -69.34863281 490.24291992 C-70.15486588 490.24853943 -70.96109894 490.25415894 -71.79176331 490.25994873 C-75.93938963 490.23669028 -79.35025543 490.07001676 -83 488 C-84.49438383 485.60779275 -85.6631392 483.42350441 -86.8125 480.875 C-87.50731847 479.40992185 -88.20264473 477.94508444 -88.8984375 476.48046875 C-89.24745117 475.73200684 -89.59646484 474.98354492 -89.95605469 474.21240234 C-91.24070946 471.48987157 -92.59333092 468.80577899 -93.95581055 466.12158203 C-97.65498788 458.8336231 -101.16591933 451.46247363 -104.64428711 444.06713867 C-107.02943509 439.00951868 -109.47924205 433.9913016 -112 429 C-114.92502144 423.20822449 -117.73840229 417.3714148 -120.5 411.5 C-124.53339931 402.93064276 -128.72885128 394.4528716 -133 386 C-137.67485675 376.74816485 -142.22723004 367.45271224 -146.64208984 358.07373047 C-150.30192407 350.31803016 -154.13261977 342.65378838 -158 335 C-162.27115612 326.54711376 -166.46613898 318.06914978 -170.5 309.5 C-173.37892715 303.38677619 -176.29738508 297.29736118 -179.3125 291.25 C-179.62574219 290.61900391 -179.93898438 289.98800781 -180.26171875 289.33789062 C-182.36921161 285.13641447 -184.64045625 281.06279057 -187 277 C-188.65 277 -190.3 277 -192 277 C-193.92279691 285.5722016 -194.99601089 294.22868138 -196.0625 302.9375 C-196.32206892 305.05092604 -196.58277037 307.16417847 -196.84727478 309.2769928 C-197.08485764 311.17509289 -197.31806629 313.07373899 -197.55102539 314.97241211 C-198 318 -198 318 -199 321 C-199.30057802 323.49985679 -199.5664526 325.99473983 -199.8125 328.5 C-200.62108116 336.24426947 -201.69972197 343.92847906 -202.875 351.625 C-204.42103113 361.77349209 -205.76648679 371.93497599 -207 382.125 C-208.31067544 392.94728652 -209.84987932 403.70790489 -211.63842773 414.4621582 C-212.73465256 421.12081007 -213.59729029 427.76503658 -214.28393555 434.47705078 C-214.93755694 440.75951425 -215.85655988 446.98667952 -216.82006836 453.22827148 C-217.96958209 460.6961219 -218.99779948 468.17777335 -219.99780273 475.66699219 C-220.11454346 476.53743164 -220.23128418 477.40787109 -220.3515625 478.3046875 C-220.45291504 479.06765137 -220.55426758 479.83061523 -220.65869141 480.61669922 C-221.06004825 483.41930686 -221.53123734 486.20795575 -222 489 C-234.09994118 489.30173144 -246.19898246 489.53245207 -258.30192471 489.67355824 C-263.92260901 489.74129913 -269.54071308 489.83310035 -275.15991211 489.98071289 C-280.58719595 490.1223852 -286.01200556 490.19977517 -291.44099617 490.23340416 C-293.50773137 490.25735373 -295.57433675 490.30412955 -297.64001274 490.37449074 C-313.41757845 490.89033792 -313.41757845 490.89033792 -317.74086761 487.7256813 C-321.02735008 484.27012366 -322.9996582 480.31481248 -325 476 C-325.86279693 474.66216778 -326.75065271 473.33958841 -327.6796875 472.046875 C-328.40414063 470.95890625 -329.12859375 469.8709375 -329.875 468.75 C-330.28371338 468.13632568 -330.69242676 467.52265137 -331.11352539 466.89038086 C-334.67514862 461.52601899 -338.17275945 456.12045097 -341.63037109 450.68847656 C-344.64859105 445.98238154 -347.79592396 441.37310286 -350.97265625 436.7734375 C-357.13956578 427.83961628 -363.17185813 418.81797381 -369.18847656 409.7824707 C-370.99632365 407.06801998 -372.80663481 404.35522473 -374.6171875 401.64257812 C-381.0353036 392.01706925 -387.38676178 382.35301596 -393.65478516 372.62915039 C-396.45593711 368.28631002 -399.30853327 363.97909214 -402.1875 359.6875 C-403.19921943 358.17447962 -404.21093818 356.66145879 -405.22265625 355.1484375 C-405.69848145 354.4378418 -406.17430664 353.72724609 -406.66455078 352.99511719 C-408.48854141 350.2701352 -410.30692969 347.54143451 -412.125 344.8125 C-412.74890625 343.87664062 -413.3728125 342.94078125 -414.015625 341.9765625 C-416.1875 338.71875 -416.1875 338.71875 -418.359375 335.4609375 C-418.97631226 334.53559204 -418.97631226 334.53559204 -419.60571289 333.59155273 C-420.45140353 332.32293545 -421.29694408 331.0542181 -422.14233398 329.78540039 C-424.2957882 326.55377656 -426.45189427 323.32398081 -428.61328125 320.09765625 C-429.04463379 319.4528833 -429.47598633 318.80811035 -429.92041016 318.14379883 C-430.72507441 316.9411436 -431.53063435 315.7390868 -432.33740234 314.5378418 C-434.71004882 310.98900727 -437.01447669 307.40305967 -439.29296875 303.79296875 C-443.10256982 297.78893485 -447.10221993 291.92499144 -451.125 286.0625 C-457.56959238 276.63080785 -463.87412048 267.12003856 -470.0703125 257.5234375 C-473.94328525 251.52731379 -477.90970966 245.59457986 -481.88427734 239.66552734 C-483.63578325 237.05091611 -485.38010988 234.43152924 -487.125 231.8125 C-487.76953125 230.84570312 -488.4140625 229.87890625 -489.078125 228.8828125 C-499.88541667 212.671875 -510.69270833 196.4609375 -521.5 180.25 C-521.91258057 179.63116943 -522.32516113 179.01233887 -522.75024414 178.37475586 C-523.58291394 177.12566982 -524.41543367 175.87648373 -525.24780273 174.62719727 C-527.34006418 171.48737288 -529.43496622 168.3493713 -531.53515625 165.21484375 C-535.76658537 158.89539907 -539.9750951 152.56083411 -544.125 146.1875 C-544.5156665 145.59445068 -544.90633301 145.00140137 -545.30883789 144.39038086 C-548 140.23097845 -548 140.23097845 -548 138 C-548.66 138 -549.32 138 -550 138 C-551.55078125 135.83984375 -551.55078125 135.83984375 -553.3125 132.9375 C-555.3521827 129.63253695 -557.38344773 126.37692808 -559.6875 123.25 C-561.30293713 120.97965593 -562.70822746 118.84684534 -564.0625 116.4375 C-565.39583898 114.07189858 -566.7155121 111.90577724 -568.25 109.6875 C-570 107 -570 107 -570 105 C-570.66 105 -571.32 105 -572 105 C-573.58876375 102.67490536 -575.0574512 100.3516909 -576.5 97.9375 C-580.43081821 91.47240543 -584.51052573 85.15274194 -588.86328125 78.96264648 C-591.11944237 75.67042761 -592.57097826 72.99667624 -593 69 C-583.22542114 64.88693464 -573.31044654 61.32119239 -563.27514648 57.90087891 C-556.09622787 55.44427668 -548.95265795 52.90757806 -541.82421875 50.30859375 C-540.94673981 49.98960114 -540.06926086 49.67060852 -539.16519165 49.34194946 C-533.86025099 47.41354386 -533.86025099 47.41354386 -528.56103516 45.46948242 C-526.07834655 44.55467128 -523.59229149 43.64959462 -521.10546875 42.74609375 C-520.36068771 42.4684166 -519.61590668 42.19073944 -518.84855652 41.90464783 C-515.15516391 40.57245378 -511.94178583 39.46032904 -508 40 C-506.11328125 41.87890625 -506.11328125 41.87890625 -504.3125 44.5625 C-503.28189453 46.07263672 -503.28189453 46.07263672 -502.23046875 47.61328125 C-501.48640335 48.74180806 -500.74293376 49.87072789 -500 51 C-499.20564684 52.18181036 -498.41004421 53.36278171 -497.61328125 54.54296875 C-495.48629312 57.70461685 -493.38156999 60.88049519 -491.28222656 64.06054688 C-489.19776067 67.21344045 -487.09827635 70.35628831 -485 73.5 C-484.16919565 74.74604362 -483.33846661 75.99213747 -482.5078125 77.23828125 C-482.09563477 77.85654785 -481.68345703 78.47481445 -481.25878906 79.11181641 C-471.38085938 93.92871094 -461.50292969 108.74560547 -451.625 123.5625 C-451.21628662 124.17552979 -450.80757324 124.78855957 -450.38647461 125.42016602 C-449.54078421 126.68878346 -448.69524549 127.95750203 -447.84985352 129.22631836 C-445.74585863 132.38371148 -443.63952615 135.5394834 -441.52734375 138.69140625 C-436.5661008 146.10180818 -431.67485714 153.55334481 -426.84863281 161.05249023 C-423.94398123 165.56204047 -420.9865461 170.02781675 -417.92578125 174.43359375 C-417 176 -417 176 -417 178 C-416.34 178 -415.68 178 -415 178 C-413.39251375 180.36716784 -411.90193847 182.73354608 -410.4375 185.1875 C-407.23560939 190.43857736 -403.97191835 195.59094287 -400.4375 200.625 C-396.92723633 205.62465371 -393.58204793 210.70050306 -390.29785156 215.84912109 C-386.61368744 221.62140425 -382.81233724 227.31164443 -379 233 C-377.04020072 235.93652315 -375.08269225 238.87457188 -373.125 241.8125 C-372.08857916 243.3672125 -371.05212096 244.92190008 -370.015625 246.4765625 C-349.67708333 276.984375 -329.33854167 307.4921875 -309 338 C-303.26658036 304.19863372 -298.07196567 270.32812343 -293.05252075 236.41409302 C-291.1113138 223.30481394 -289.09941244 210.20980822 -287 197.125 C-284.31674863 180.39289369 -281.91538455 163.62460668 -279.53955078 146.84643555 C-276.75081755 127.16014512 -273.81160676 107.50098242 -270.72265625 87.859375 C-270.61630859 87.18311066 -270.50996094 86.50684631 -270.40039062 85.81008911 C-270.24111084 84.79735428 -270.24111084 84.79735428 -270.07861328 83.76416016 C-269.91960541 82.75304169 -269.91960541 82.75304169 -269.75738525 81.72149658 C-269.54486853 80.3702049 -269.33226336 79.01892713 -269.11956787 77.66766357 C-267.67451608 68.47576939 -266.30040692 59.2760214 -265 50.0625 C-263.58669718 40.05876127 -262.14428595 30.05991732 -260.64916992 20.06808472 C-260.42566756 18.57068779 -260.20364943 17.07306853 -259.9831543 15.57522583 C-259.67637618 13.493538 -259.36430481 11.41271233 -259.05078125 9.33203125 C-258.78261597 7.53342651 -258.78261597 7.53342651 -258.5090332 5.69848633 C-258 3 -258 3 -257 2 C-255.30222767 1.88722242 -253.59978535 1.8442485 -251.89834595 1.82832336 C-250.79166565 1.81564423 -249.68498535 1.80296509 -248.54476929 1.78990173 C-247.31908234 1.78100418 -246.09339539 1.77210663 -244.83056641 1.76293945 C-243.54730469 1.74982727 -242.26404297 1.73671509 -240.94189453 1.72320557 C-237.40309644 1.68746029 -233.86427285 1.6582748 -230.32540178 1.63081384 C-228.10349413 1.61329648 -225.88160229 1.59441873 -223.65970993 1.57506371 C-215.87392362 1.50732234 -208.08811413 1.44500982 -200.30224609 1.38745117 C-193.10846131 1.33412504 -185.91485166 1.2690183 -178.72122061 1.19811279 C-172.51026947 1.13745829 -166.29928169 1.08564456 -160.08820093 1.04018563 C-156.39565931 1.01301016 -152.70322438 0.9826231 -149.01079178 0.94317055 C-126.52799662 0.70806906 -104.18809449 1.02115379 -82 5 C-80.73929688 5.21140625 -79.47859375 5.4228125 -78.1796875 5.640625 C-45.86289985 11.59974896 -13.32926672 28.80324249 6 56 C7.09054687 57.51787109 7.09054687 57.51787109 8.203125 59.06640625 C16.69655764 71.33208199 22.77183001 85.43648944 26 100 C26.1762793 100.71736328 26.35255859 101.43472656 26.53417969 102.17382812 C28.4451016 110.96042905 28.3721876 119.78191247 28.37060547 128.73046875 C28.37494731 131.46679456 28.41127297 134.20146142 28.44921875 136.9375 C28.5258771 149.08606831 27.04052868 160.24575995 24 172 C23.68877197 173.2068042 23.37754395 174.4136084 23.05688477 175.65698242 C19.48913196 188.78048344 13.27164337 201.24157258 5 212 C4.32324219 212.95132813 3.64648438 213.90265625 2.94921875 214.8828125 C-19.2164756 245.67068635 -54.71075752 262.27888458 -91 270 C-86.10183576 281.22495973 -80.89295218 292.31646953 -75.375 303.25 C-71.51768244 310.89556063 -67.78356295 318.59996375 -64.0625 326.3125 C-63.75759644 326.94437225 -63.45269287 327.57624451 -63.1385498 328.2272644 C-59.07041413 336.66245717 -55.04280908 345.11597744 -51.05322266 353.58862305 C-48.43502217 359.13005113 -45.71252656 364.61347731 -42.94775391 370.08300781 C-40.53851343 374.86797722 -38.25431043 379.70291525 -36 384.5625 C-33.33575757 390.29121562 -30.53747072 395.92596467 -27.5625 401.5 C-27.22025391 402.14138916 -26.87800781 402.78277832 -26.52539062 403.44360352 C-25.02774747 406.40788159 -25.02774747 406.40788159 -23 409 C-20.26584181 405.77759928 -18.0893425 402.56196973 -16.125 398.84375 C-14.62369387 396.38327606 -12.80710672 394.24717934 -11 392 C-8.90833222 389.18769817 -6.86020393 386.34441538 -4.8125 383.5 C-4.23443604 382.69828369 -3.65637207 381.89656738 -3.06079102 381.07055664 C0.92111525 375.53419565 4.83120588 369.95516947 8.6953125 364.3359375 C18.80638689 349.65569269 29.24002857 335.19183053 39.6875 320.75 C43.59514675 315.34808799 47.47597781 309.93177335 51.28125 304.45703125 C53.39517586 301.43507815 55.54049198 298.43597245 57.6875 295.4375 C63.49762118 287.3193552 69.24896377 279.16005711 75 271 C94.50029042 243.33133698 94.50029042 243.33133698 98.390625 238.14672852 C101.20645547 234.54578125 101.20645547 234.54578125 102.125 230.1875 C101.1523956 227.43178753 100.04486968 225.04555099 98.7109375 222.45703125 C95.64140131 216.37598936 93.02045361 210.13726889 90.39453125 203.85546875 C88.17447091 198.59743111 85.78130043 193.48173535 83.19628906 188.39355469 C81.38646703 184.77243322 79.75071195 181.08157296 78.125 177.375 C77.78476807 176.60575195 77.44453613 175.83650391 77.09399414 175.04394531 C75.43799134 171.29418566 73.79746776 167.5381619 72.17578125 163.7734375 C69.38174752 157.29943792 66.51483352 150.90884043 63.3125 144.625 C60.9724639 140.02275605 58.91420096 135.4394225 57.0625 130.625 C55.56348482 126.92155072 53.83838605 123.3330266 52.12890625 119.72290039 C48.97869234 113.02951281 45.99245778 106.26507387 43 99.5 C39.78830643 92.24239389 36.5776308 84.98880492 33.1875 77.8125 C30.55911934 72.24389691 28.07158628 66.62704072 25.6237793 60.9777832 C23.38178892 55.8228967 21.02485731 50.72968523 18.625 45.64672852 C16.49429029 41.11361982 14.48141526 36.53755012 12.5 31.9375 C9.72157059 25.49584606 6.68478671 19.22826885 3.48046875 12.98828125 C1.08526653 8.15363824 0 5.52428366 0 0 Z M-166 86 C-166.144375 87.299375 -166.28875 88.59875 -166.4375 89.9375 C-166.875 93.875 -166.875 93.875 -168 95 C-168.21510988 96.61929939 -168.37083434 98.24659004 -168.5 99.875 C-168.5825 100.85984375 -168.665 101.8446875 -168.75 102.859375 C-168.87375 104.41398437 -168.87375 104.41398437 -169 106 C-169.16254717 108.04199877 -169.32900035 110.08369168 -169.5 112.125 C-169.5721875 113.03507812 -169.644375 113.94515625 -169.71875 114.8828125 C-170 117 -170 117 -171 118 C-172.15769615 124.94617691 -172.12010487 131.98053779 -172 139 C-172.66 139 -173.32 139 -174 139 C-174.05534912 139.69150146 -174.11069824 140.38300293 -174.16772461 141.09545898 C-174.41963531 144.20987214 -174.67847351 147.32367095 -174.9375 150.4375 C-175.02451172 151.52611328 -175.11152344 152.61472656 -175.20117188 153.73632812 C-175.28818359 154.77080078 -175.37519531 155.80527344 -175.46484375 156.87109375 C-175.543396 157.82943115 -175.62194824 158.78776855 -175.70288086 159.77514648 C-176 162 -176 162 -177 163 C-177.21475256 164.53439961 -177.37067611 166.07714551 -177.5 167.62109375 C-177.5825 168.55630859 -177.665 169.49152344 -177.75 170.45507812 C-177.8325 171.43927734 -177.915 172.42347656 -178 173.4375 C-178.16296754 175.37401278 -178.32946305 177.31023288 -178.5 179.24609375 C-178.5721875 180.10904053 -178.644375 180.9719873 -178.71875 181.86108398 C-179 184 -179 184 -180 186 C-180.0689472 187.37342831 -180.08467708 188.75002102 -180.0625 190.125 C-180.041875 191.40375 -180.02125 192.6825 -180 194 C-175.54168018 194.02891546 -171.08338431 194.04676981 -166.625 194.0625 C-165.35398437 194.07087891 -164.08296875 194.07925781 -162.7734375 194.08789062 C-161.56171875 194.09111328 -160.35 194.09433594 -159.1015625 194.09765625 C-157.98088379 194.10289307 -156.86020508 194.10812988 -155.70556641 194.11352539 C-153.03132657 194.18621466 -153.03132657 194.18621466 -151 193 C-148.83597668 192.78817615 -146.66652344 192.63077164 -144.49609375 192.5 C-143.19865234 192.4175 -141.90121094 192.335 -140.56445312 192.25 C-138.49494127 192.12384331 -136.42533884 191.99926979 -134.35571289 191.875 C-132.36060813 191.75375446 -130.36584266 191.62696562 -128.37109375 191.5 C-126.5756311 191.39171875 -126.5756311 191.39171875 -124.74389648 191.28125 C-122.09059183 191.30103197 -122.09059183 191.30103197 -121 190 C-118.65276034 189.602507 -116.29671452 189.25631277 -113.9375 188.9375 C-112.64714844 188.76089844 -111.35679687 188.58429688 -110.02734375 188.40234375 C-109.02832031 188.26957031 -108.02929688 188.13679688 -107 188 C-107 187.34 -107 186.68 -107 186 C-105.906875 186.020625 -104.81375 186.04125 -103.6875 186.0625 C-100.05615809 186.18544452 -100.05615809 186.18544452 -97 185 C-97 184.34 -97 183.68 -97 183 C-95.989375 182.938125 -94.97875 182.87625 -93.9375 182.8125 C-88.24539409 182.01583609 -83.74090352 178.21415035 -80 174 C-80 173.34 -80 172.68 -80 172 C-79.01 171.67 -78.02 171.34 -77 171 C-77 170.34 -77 169.68 -77 169 C-76.01 168.67 -75.02 168.34 -74 168 C-74 167.34 -74 166.68 -74 166 C-73.34 166 -72.68 166 -72 166 C-71.67 164.02 -71.34 162.04 -71 160 C-70.34 160 -69.68 160 -69 160 C-68.67 157.36 -68.34 154.72 -68 152 C-67.34 152 -66.68 152 -66 152 C-65.2132732 146.4554492 -64.84441818 141.09647338 -64.875 135.5 C-64.87113281 134.79230469 -64.86726562 134.08460938 -64.86328125 133.35546875 C-64.87217393 128.49117041 -65.31662146 123.81619164 -66 119 C-66.66 119 -67.32 119 -68 119 C-68.495 116.03 -68.495 116.03 -69 113 C-69.66 113 -70.32 113 -71 113 C-71.33 111.35 -71.66 109.7 -72 108 C-72.66 108 -73.32 108 -74 108 C-74.495 106.02 -74.495 106.02 -75 104 C-75.66 104 -76.32 104 -77 104 C-77 103.34 -77 102.68 -77 102 C-77.66 102 -78.32 102 -79 102 C-79 101.34 -79 100.68 -79 100 C-79.99 99.67 -80.98 99.34 -82 99 C-82.495 98.01 -82.495 98.01 -83 97 C-86.02934491 96.34227572 -86.02934491 96.34227572 -89 96 C-89 95.34 -89 94.68 -89 94 C-91.64 93.67 -94.28 93.34 -97 93 C-97 92.34 -97 91.68 -97 91 C-107.41848134 87.60266913 -118.36126363 87.75686644 -129.22460938 87.39453125 C-130.21396484 87.35714844 -131.20332031 87.31976563 -132.22265625 87.28125 C-133.11734619 87.25095703 -134.01203613 87.22066406 -134.93383789 87.18945312 C-137 87 -137 87 -138 86 C-140.07262076 85.91232888 -142.14820294 85.89304127 -144.22265625 85.90234375 C-146.11274414 85.90717773 -146.11274414 85.90717773 -148.04101562 85.91210938 C-149.38151109 85.92046597 -150.72200588 85.92893093 -152.0625 85.9375 C-153.40689942 85.9425134 -154.7513006 85.94707658 -156.09570312 85.95117188 C-159.39717941 85.96300512 -162.69856803 85.97949029 -166 86 Z " fill="#FEFEFE" transform="translate(618,283)"></path>
</svg></svg></g></g></svg></g></svg>